<svg width="252" height="74" viewBox="0 0 252 74" fill="none" xmlns="http://www.w3.org/2000/svg">
<path d="M40.35 20.25V55H34.65V31.2L24.05 55H20.1L9.45 31.2V55H3.75V20.25H9.9L22.1 47.5L34.25 20.25H40.35ZM59.7918 55.45C57.1918 55.45 54.8418 54.8667 52.7418 53.7C50.6418 52.5 48.9918 50.8333 47.7918 48.7C46.5918 46.5333 45.9918 44.0333 45.9918 41.2C45.9918 38.4 46.6085 35.9167 47.8418 33.75C49.0751 31.5833 50.7585 29.9167 52.8918 28.75C55.0251 27.5833 57.4085 27 60.0418 27C62.6751 27 65.0585 27.5833 67.1918 28.75C69.3251 29.9167 71.0085 31.5833 72.2418 33.75C73.4751 35.9167 74.0918 38.4 74.0918 41.2C74.0918 44 73.4585 46.4833 72.1918 48.65C70.9251 50.8167 69.1918 52.5 66.9918 53.7C64.8251 54.8667 62.4251 55.45 59.7918 55.45ZM59.7918 50.5C61.2585 50.5 62.6251 50.15 63.8918 49.45C65.1918 48.75 66.2418 47.7 67.0418 46.3C67.8418 44.9 68.2418 43.2 68.2418 41.2C68.2418 39.2 67.8585 37.5167 67.0918 36.15C66.3251 34.75 65.3085 33.7 64.0418 33C62.7751 32.3 61.4085 31.95 59.9418 31.95C58.4751 31.95 57.1085 32.3 55.8418 33C54.6085 33.7 53.6251 34.75 52.8918 36.15C52.1585 37.5167 51.7918 39.2 51.7918 41.2C51.7918 44.1667 52.5418 46.4667 54.0418 48.1C55.5751 49.7 57.4918 50.5 59.7918 50.5ZM82.6266 23.8C81.5932 23.8 80.7266 23.45 80.0266 22.75C79.3266 22.05 78.9766 21.1833 78.9766 20.15C78.9766 19.1167 79.3266 18.25 80.0266 17.55C80.7266 16.85 81.5932 16.5 82.6266 16.5C83.6266 16.5 84.4766 16.85 85.1766 17.55C85.8766 18.25 86.2266 19.1167 86.2266 20.15C86.2266 21.1833 85.8766 22.05 85.1766 22.75C84.4766 23.45 83.6266 23.8 82.6266 23.8ZM85.4266 60.4C85.4266 63.1 84.7432 65.05 83.3766 66.25C82.0432 67.4833 80.0932 68.1 77.5266 68.1H74.5766V63.3H76.5266C77.6932 63.3 78.5099 63.0667 78.9766 62.6C79.4766 62.1667 79.7266 61.4333 79.7266 60.4V27.45H85.4266V60.4ZM104.36 55.35C102.027 55.35 99.9268 54.95 98.0602 54.15C96.1935 53.3167 94.7268 52.15 93.6602 50.65C92.5935 49.15 92.0602 47.4 92.0602 45.4H98.1602C98.2935 46.9 98.8768 48.1333 99.9102 49.1C100.977 50.0667 102.46 50.55 104.36 50.55C106.327 50.55 107.86 50.0833 108.96 49.15C110.06 48.1833 110.61 46.95 110.61 45.45C110.61 44.2833 110.26 43.3333 109.56 42.6C108.893 41.8667 108.043 41.3 107.01 40.9C106.01 40.5 104.61 40.0667 102.81 39.6C100.543 39 98.6935 38.4 97.2602 37.8C95.8602 37.1667 94.6602 36.2 93.6602 34.9C92.6602 33.6 92.1602 31.8667 92.1602 29.7C92.1602 27.7 92.6602 25.95 93.6602 24.45C94.6602 22.95 96.0602 21.8 97.8602 21C99.6602 20.2 101.743 19.8 104.11 19.8C107.477 19.8 110.227 20.65 112.36 22.35C114.527 24.0167 115.727 26.3167 115.96 29.25H109.66C109.56 27.9833 108.96 26.9 107.86 26C106.76 25.1 105.31 24.65 103.51 24.65C101.877 24.65 100.543 25.0667 99.5102 25.9C98.4768 26.7333 97.9602 27.9333 97.9602 29.5C97.9602 30.5667 98.2768 31.45 98.9102 32.15C99.5768 32.8167 100.41 33.35 101.41 33.75C102.41 34.15 103.777 34.5833 105.51 35.05C107.81 35.6833 109.677 36.3167 111.11 36.95C112.577 37.5833 113.81 38.5667 114.81 39.9C115.843 41.2 116.36 42.95 116.36 45.15C116.36 46.9167 115.877 48.5833 114.91 50.15C113.977 51.7167 112.593 52.9833 110.76 53.95C108.96 54.8833 106.827 55.35 104.36 55.35ZM129.736 32.1V47.35C129.736 48.3833 129.969 49.1333 130.436 49.6C130.936 50.0333 131.769 50.25 132.936 50.25H136.436V55H131.936C129.369 55 127.403 54.4 126.036 53.2C124.669 52 123.986 50.05 123.986 47.35V32.1H120.736V27.45H123.986V20.6H129.736V27.45H136.436V32.1H129.736ZM153.639 55.45C151.039 55.45 148.689 54.8667 146.589 53.7C144.489 52.5 142.839 50.8333 141.639 48.7C140.439 46.5333 139.839 44.0333 139.839 41.2C139.839 38.4 140.456 35.9167 141.689 33.75C142.923 31.5833 144.606 29.9167 146.739 28.75C148.873 27.5833 151.256 27 153.889 27C156.523 27 158.906 27.5833 161.039 28.75C163.173 29.9167 164.856 31.5833 166.089 33.75C167.323 35.9167 167.939 38.4 167.939 41.2C167.939 44 167.306 46.4833 166.039 48.65C164.773 50.8167 163.039 52.5 160.839 53.7C158.673 54.8667 156.273 55.45 153.639 55.45ZM153.639 50.5C155.106 50.5 156.473 50.15 157.739 49.45C159.039 48.75 160.089 47.7 160.889 46.3C161.689 44.9 162.089 43.2 162.089 41.2C162.089 39.2 161.706 37.5167 160.939 36.15C160.173 34.75 159.156 33.7 157.889 33C156.623 32.3 155.256 31.95 153.789 31.95C152.323 31.95 150.956 32.3 149.689 33C148.456 33.7 147.473 34.75 146.739 36.15C146.006 37.5167 145.639 39.2 145.639 41.2C145.639 44.1667 146.389 46.4667 147.889 48.1C149.423 49.7 151.339 50.5 153.639 50.5ZM179.274 18V55H173.574V18H179.274Z" fill="black"/>
<path d="M213.135 24.6242L241.422 41.6611C245.711 44.2442 246.616 49.4781 243.444 53.3513C240.271 57.2245 234.222 58.2703 229.933 55.6872L202.819 39.3573C198.407 36.7 194.604 33.3947 192.017 29.3902C190.145 26.4924 188.945 24.1977 188.4 22.4456C187.836 20.6295 188.093 19.7839 188.428 19.4019C188.759 19.0231 189.639 18.5625 191.897 18.5407C194.08 18.5196 197.119 18.9157 201.143 19.7653C205.447 20.674 209.459 22.4102 213.135 24.6242Z" stroke="#C3171D" stroke-width="3"/>
<circle cx="196.38" cy="25.5" r="1.5" fill="#C3171D"/>
<path d="M205.081 32.761L205.318 30.9759L204.872 30.706L203.813 31.9947L203.227 31.641L205.875 28.4192L207.107 29.1638C207.381 29.3293 207.577 29.5122 207.694 29.7125C207.814 29.9148 207.861 30.1166 207.834 30.3177C207.811 30.5208 207.725 30.7121 207.578 30.8913C207.405 31.1014 207.179 31.2517 206.9 31.342C206.627 31.4313 206.325 31.4221 205.993 31.3143L205.779 33.183L205.081 32.761ZM205.218 30.2841L205.865 30.675C206.084 30.8074 206.289 30.8573 206.48 30.8246C206.674 30.7939 206.84 30.6952 206.977 30.5283C207.114 30.3614 207.166 30.1985 207.133 30.0396C207.102 29.8776 206.975 29.7294 206.753 29.5949L206.106 29.204L205.218 30.2841ZM209.354 31.1598L208.577 32.1054L209.81 32.8501L209.456 33.2812L208.223 32.5365L207.412 33.5239L208.798 34.3617L208.444 34.7928L206.472 33.6013L209.123 30.3749L211.095 31.5664L210.741 31.9975L209.354 31.1598ZM210.107 35.1108L211.766 36.113L211.389 36.5719L209.037 35.1509L209.376 34.7383L212.961 33.3871L211.307 32.388L211.684 31.9291L214.036 33.3501L213.697 33.7627L210.107 35.1108ZM214.911 34.5169L214.134 35.4626L215.367 36.2073L215.012 36.6384L213.78 35.8937L212.968 36.8811L214.355 37.7189L214.001 38.15L212.029 36.9585L214.68 33.7321L216.652 34.9236L216.298 35.3547L214.911 34.5169ZM216.576 39.7057L216.813 37.9206L216.366 37.6506L215.307 38.9393L214.722 38.5856L217.369 35.3638L218.602 36.1085C218.876 36.274 219.071 36.4569 219.188 36.6572C219.309 36.8595 219.356 37.0613 219.329 37.2623C219.305 37.4655 219.22 37.6567 219.073 37.836C218.9 38.0461 218.674 38.1964 218.395 38.2867C218.122 38.376 217.819 38.3667 217.488 38.2589L217.274 40.1277L216.576 39.7057ZM216.713 37.2288L217.36 37.6197C217.579 37.7521 217.784 37.8019 217.975 37.7692C218.169 37.7386 218.335 37.6398 218.472 37.473C218.609 37.3061 218.661 37.1432 218.628 36.9843C218.597 36.8223 218.47 36.6741 218.248 36.5396L217.6 36.1487L216.713 37.2288ZM223.69 39.1827L219.702 41.5947L219.025 41.1852L220.326 37.1505L220.953 37.529L219.809 40.8476L223.074 38.8104L223.69 39.1827ZM224.765 39.8322L222.118 43.054L221.532 42.7003L224.18 39.4785L224.765 39.8322ZM224.036 44.2614C223.796 44.1166 223.611 43.9492 223.48 43.7592C223.352 43.5661 223.29 43.3669 223.295 43.1616C223.3 42.9564 223.378 42.761 223.531 42.5756L224.157 42.9541C224.056 43.1015 224.022 43.252 224.055 43.4058C224.091 43.5616 224.206 43.6984 224.402 43.8163C224.604 43.9384 224.797 43.9903 224.981 43.972C225.167 43.9506 225.318 43.8704 225.432 43.7313C225.521 43.6232 225.557 43.5134 225.541 43.402C225.529 43.2926 225.485 43.1873 225.409 43.0861C225.337 42.987 225.226 42.8599 225.077 42.705C224.889 42.5087 224.745 42.3382 224.644 42.1937C224.548 42.0481 224.498 41.884 224.495 41.7014C224.491 41.5188 224.572 41.3271 224.737 41.1262C224.889 40.9408 225.074 40.8096 225.291 40.7326C225.508 40.6555 225.739 40.6358 225.985 40.6733C226.231 40.7109 226.475 40.803 226.719 40.9499C227.064 41.1588 227.282 41.4083 227.372 41.6983C227.467 41.9872 227.415 42.2749 227.216 42.5614L226.569 42.1704C226.655 42.0468 226.676 41.9091 226.631 41.7574C226.587 41.6057 226.472 41.474 226.287 41.3623C226.12 41.261 225.951 41.2169 225.781 41.23C225.612 41.2431 225.467 41.3223 225.348 41.4676C225.267 41.5665 225.232 41.668 225.244 41.7722C225.261 41.8754 225.306 41.9766 225.378 42.0757C225.451 42.1748 225.558 42.2998 225.701 42.4507C225.888 42.6521 226.032 42.8266 226.131 42.9743C226.233 43.124 226.285 43.2917 226.286 43.4774C226.293 43.6621 226.213 43.8564 226.045 44.0603C225.911 44.2241 225.734 44.3487 225.516 44.4339C225.3 44.5213 225.062 44.5529 224.8 44.5287C224.544 44.5035 224.289 44.4144 224.036 44.2614ZM228.679 46.0327L227.184 45.1298L226.386 45.6329L225.775 45.2637L229.705 42.8099L230.383 43.2194L229.011 47.2184L228.394 46.8461L228.679 46.0327ZM228.868 45.5023L229.519 43.6544L227.703 44.798L228.868 45.5023ZM232.499 49.3259L231.914 48.9722L232.129 45.5021L230.152 47.908L229.567 47.5543L232.218 44.3279L232.803 44.6816L232.592 48.1471L234.565 45.7458L235.15 46.0995L232.499 49.3259ZM234.869 50.8064C234.537 50.6058 234.288 50.3511 234.121 50.0424C233.961 49.7327 233.901 49.4031 233.943 49.0535C233.99 48.7028 234.143 48.3699 234.402 48.0547C234.661 47.7395 234.974 47.5053 235.341 47.3522C235.711 47.2011 236.091 47.1399 236.483 47.1683C236.881 47.1958 237.245 47.3098 237.577 47.5105C237.913 47.7132 238.161 47.9694 238.322 48.2791C238.488 48.5878 238.549 48.9159 238.504 49.2634C238.459 49.611 238.307 49.9424 238.048 50.2576C237.789 50.5728 237.475 50.8085 237.106 50.9647C236.739 51.1178 236.357 51.1806 235.96 51.1532C235.568 51.1247 235.205 51.0091 234.869 50.8064ZM235.246 50.3475C235.482 50.4902 235.732 50.5695 235.996 50.5854C236.262 50.5982 236.52 50.546 236.77 50.4288C237.026 50.3106 237.252 50.1325 237.447 49.8946C237.643 49.6566 237.761 49.4159 237.802 49.1726C237.847 48.9313 237.816 48.7069 237.71 48.4994C237.604 48.2919 237.433 48.1168 237.197 47.974C236.96 47.8313 236.71 47.752 236.447 47.7361C236.183 47.7202 235.925 47.7698 235.671 47.885C235.421 48.0021 235.198 48.1797 235.003 48.4177C234.807 48.6557 234.686 48.8968 234.639 49.1412C234.598 49.3846 234.629 49.6116 234.733 49.8222C234.839 50.0297 235.01 50.2048 235.246 50.3475Z" fill="black"/>
</svg>
